<?xml version="1.0" encoding="UTF-8"?>
<svg width="160px" height="34px" viewBox="0 0 160 34" version="1.1" xmlns="http://www.w3.org/2000/svg">
    <!-- Generator: Sketch 61.2 (89653) - https://sketch.com -->
    <title>Artboard</title>
    <desc>Created with Sketch.</desc>
    <g id="Artboard" stroke="none" stroke-width="1" fill="none" fill-rule="evenodd">
        <g id="EPRI_logo_short" transform="translate(1.000000, 1.000000)" fill="#484848" fill-rule="nonzero">
            <path
                d="M138.236668,13.1796016 C139.994113,13.1796016 141.419871,11.7061607 141.419871,9.93603709 C141.419871,8.16342033 139.994113,6.74732143 138.236668,6.74732143 L109.102684,6.76228022 C108.441786,6.76228022 106.902165,6.76228022 106.825431,8.57977335 L106.825431,29.4423008 C106.825431,31.1825069 105.419475,32.603592 103.686783,32.603592 C101.956566,32.603592 100.55061,31.1825069 100.55061,29.4423008 L100.55061,8.6146772 C100.55061,5.34618132 102.827863,0.47709478 109.102684,0.47709478 L137.981714,0.47709478 C137.917357,0.47709478 137.855475,0.487067308 137.788643,0.492053571 C138.268846,0.462135989 142.556022,0.277644231 145.556055,3.11732143 C146.76894,4.26665522 148.2145,6.35589973 148.2145,9.79392857 C148.2145,12.5114423 147.3135,14.8475069 145.603085,16.5528091 C142.694637,19.4498283 138.541126,19.4647871 138.122805,19.4573077 L120.258747,19.4647871 C118.486451,19.4647871 117.04089,20.9108036 117.04089,22.7033654 C117.04089,24.4934341 118.486451,25.9793407 120.258747,25.9793407 L144.716937,25.9693681 C146.444679,25.9693681 147.85311,27.3480701 147.85311,29.0882761 C147.85311,30.8384547 146.444679,32.2545536 144.716937,32.2545536 L120.852813,32.2545536 C120.919646,32.2545536 116.100286,32.4540041 113.092827,29.6093407 C111.808159,28.3976786 110.350223,26.1688187 110.350223,22.4390934 C110.350223,18.9935852 112.110143,16.8719299 113.330453,15.7250893 C116.340387,12.902864 120.941923,13.1845879 120.87014,13.1845879 L138.236668,13.1796016"
                id="Fill-35"></path>
            <path
                d="M41.2529286,13.1347253 L12.9036071,13.1347253 C11.1684396,13.1347253 9.76743407,14.5458379 9.76743407,16.2910302 C9.76743407,18.0362225 11.1684396,19.4548146 12.9036071,19.4548146 L41.2529286,19.4548146 C42.9831456,19.4548146 44.3891016,18.0362225 44.3891016,16.2910302 C44.3891016,14.5458379 42.9831456,13.1347253 41.2529286,13.1347253"
                id="Fill-31"></path>
            <path
                d="M43.6489945,25.9394505 L8.58672802,25.9394505 C7.93078022,25.9394505 6.38868407,25.9394505 6.30947527,24.1344231 C6.31195055,24.1842857 6.29214835,8.50996566 6.29214835,8.50996566 C6.36888187,6.76975962 7.91097802,6.76975962 8.56692582,6.76975962 L43.6885989,6.76975962 C45.4188159,6.76975962 46.824772,5.35116758 46.824772,3.60597527 C46.824772,1.86576923 45.4188159,0.452163462 43.6885989,0.452163462 L8.55207418,0.452163462 C2.27725275,0.452163462 0,5.27138736 0,8.51744505 C0,8.52492445 0.0346538462,24.2017376 0.0346538462,24.2017376 C0.0346538462,24.5333242 0.101486264,27.5973832 2.39111538,29.9060234 C3.46290934,30.9805632 5.40352473,32.262033 8.58672802,32.262033 L43.6489945,32.262033 C45.3841621,32.262033 46.7876429,30.8459341 46.7876429,29.1032349 C46.7876429,27.3580426 45.3841621,25.9394505 43.6489945,25.9394505"
                id="Fill-32"></path>
            <path
                d="M62.8224725,13.1746154 L62.8224725,13.1746154 C61.0897802,13.1746154 59.6838242,14.585728 59.6838242,16.3309203 C59.6838242,18.0786058 61.0897802,19.4373626 62.8224725,19.4373626 L87.226206,19.4373626 C87.6989835,19.4373626 91.9317033,19.3575824 94.8624286,16.4082074 C96.5629423,14.7004121 97.4639423,12.3768132 97.4639423,9.6867239 C97.4639423,6.24121566 96.0084808,4.15446429 94.7931209,3.01260989 C91.7807115,0.185398352 87.4861099,0.40978022 87.0083819,0.442190934 C87.0801648,0.434711538 87.1519478,0.434711538 87.226206,0.434711538 L58.5080687,0.434711538 C52.2357225,0.434711538 49.9535192,5.2589217 49.9535192,8.49999313 L49.9535192,29.4373146 C49.9535192,31.1825069 51.3594753,32.5961126 53.0946429,32.5961126 C54.8273352,32.5961126 56.2332912,31.1825069 56.2332912,29.4373146 L56.2332912,8.49999313 C56.3125,6.75230769 57.8521209,6.75230769 58.5080687,6.75230769 L87.4440302,6.73236264 C89.2237527,6.73236264 90.6618874,8.16840659 90.6618874,9.95598214 C90.6618874,11.7460508 89.2237527,13.1970536 87.4440302,13.1970536 L62.8224725,13.1746154"
                id="Fill-33"></path>
            <path
                d="M152.199692,3.33671703 L152.199692,29.4373146 C152.199692,31.1825069 153.605648,32.5961126 155.338341,32.5961126 C157.068558,32.5961126 158.474514,31.1825069 158.474514,29.4373146 L158.474514,3.33671703 C158.474514,1.59152473 157.068558,0.177918956 155.338341,0.177918956 C153.605648,0.177918956 152.199692,1.59152473 152.199692,3.33671703"
                id="Fill-34"></path>
        </g>
    </g>
</svg>
