<?xml version="1.0" encoding="UTF-8" standalone="no"?>
<svg xmlns="http://www.w3.org/2000/svg" contentScriptType="application/ecmascript" contentStyleType="text/css"
     height="945px" preserveAspectRatio="none" style="width:371px;height:945px;background:#FFFFFF;" version="1.1"
     viewBox="0 0 371 945" width="371px" zoomAndPan="magnify">
    <defs>
        <filter height="300%" id="fhngfq1sjabg7" width="300%" x="-1" y="-1">
            <feGaussianBlur result="blurOut" stdDeviation="2.0"/>
            <feColorMatrix in="blurOut" result="blurOut2" type="matrix"
                           values="0 0 0 0 0 0 0 0 0 0 0 0 0 0 0 0 0 0 .4 0"/>
            <feOffset dx="4.0" dy="4.0" in="blurOut2" result="blurOut3"/>
            <feBlend in="SourceGraphic" in2="blurOut3" mode="normal"/>
        </filter>
    </defs>
    <g>
        <rect fill="none" height="27.6094" style="stroke:none;stroke-width:1.0;" width="162" x="74.6667" y="15"/>
        <text fill="#000000" font-family="sans-serif" font-size="14" font-weight="bold" lengthAdjust="spacing"
              textLength="152" x="79.6667" y="34.5332">Package Organization
        </text>
        <rect fill="#FEFECE" filter="url(#fhngfq1sjabg7)" height="37.6094" rx="12.5" ry="12.5"
              style="stroke:#A80036;stroke-width:1.5;" width="108.3333" x="10" y="461.875"/>
        <path
            d="M25.6667,476.651 L24.5,480.151 L21,480.151 L23.9167,482.4844 L22.75,485.9844 L25.6667,483.651 L28.5833,485.9844 L27.4167,482.4844 L30.3333,480.151 L26.8333,480.151 L25.6667,476.651 "
            fill="#000000" style="stroke:;stroke-width:0.0;stroke-dasharray:;"/>
        <text fill="#000000" font-family="sans-serif" font-size="14" lengthAdjust="spacing" textLength="77" x="31.3333"
              y="486.4082">py-dss-tools
        </text>
        <rect fill="#FEFECE" filter="url(#fhngfq1sjabg7)" height="37.6094" rx="12.5" ry="12.5"
              style="stroke:#A80036;stroke-width:1.5;" width="85" x="168.3333" y="58.6094"/>
        <text fill="#000000" font-family="sans-serif" font-size="14" lengthAdjust="spacing" textLength="65" x="178.3333"
              y="83.1426">algorithms
        </text>
        <path
            d="M118.3333,480.6797 L128.3333,480.6797 C143.3333,480.6797 143.3333,77.4141 158.3333,77.4141 L168.3333,77.4141 "
            fill="none" style="stroke:#A80036;stroke-width:1.0;"/>
        <rect fill="#FEFECE" filter="url(#fhngfq1sjabg7)" height="37.6094" rx="12.5" ry="12.5"
              style="stroke:#A80036;stroke-width:1.5;" width="80" x="168.3333" y="116.2188"/>
        <text fill="#000000" font-family="sans-serif" font-size="14" lengthAdjust="spacing" textLength="60" x="178.3333"
              y="140.752">converter
        </text>
        <path
            d="M118.3333,480.6797 L128.3333,480.6797 C143.3333,480.6797 143.3333,135.0234 158.3333,135.0234 L168.3333,135.0234 "
            fill="none" style="stroke:#A80036;stroke-width:1.0;"/>
        <rect fill="#FEFECE" filter="url(#fhngfq1sjabg7)" height="37.6094" rx="12.5" ry="12.5"
              style="stroke:#A80036;stroke-width:1.5;" width="48" x="168.3333" y="346.6563"/>
        <text fill="#000000" font-family="sans-serif" font-size="14" lengthAdjust="spacing" textLength="28" x="178.3333"
              y="371.1895">core
        </text>
        <rect fill="#FEFECE" filter="url(#fhngfq1sjabg7)" height="37.6094" rx="12.5" ry="12.5"
              style="stroke:#A80036;stroke-width:1.5;" width="63" x="266.3333" y="173.8281"/>
        <text fill="#000000" font-family="sans-serif" font-size="14" lengthAdjust="spacing" textLength="43" x="276.3333"
              y="198.3613">control
        </text>
        <path
            d="M216.3333,365.4609 L226.3333,365.4609 C241.3333,365.4609 241.3333,192.6328 256.3333,192.6328 L266.3333,192.6328 "
            fill="none" style="stroke:#A80036;stroke-width:1.0;"/>
        <rect fill="#FEFECE" filter="url(#fhngfq1sjabg7)" height="37.6094" rx="12.5" ry="12.5"
              style="stroke:#A80036;stroke-width:1.5;" width="68" x="266.3333" y="231.4375"/>
        <text fill="#000000" font-family="sans-serif" font-size="14" lengthAdjust="spacing" textLength="48" x="276.3333"
              y="255.9707">general
        </text>
        <path
            d="M216.3333,365.4609 L226.3333,365.4609 C241.3333,365.4609 241.3333,250.2422 256.3333,250.2422 L266.3333,250.2422 "
            fill="none" style="stroke:#A80036;stroke-width:1.0;"/>
        <rect fill="#FEFECE" filter="url(#fhngfq1sjabg7)" height="37.6094" rx="12.5" ry="12.5"
              style="stroke:#A80036;stroke-width:1.5;" width="63" x="266.3333" y="289.0469"/>
        <text fill="#000000" font-family="sans-serif" font-size="14" lengthAdjust="spacing" textLength="43" x="276.3333"
              y="313.5801">meters
        </text>
        <path
            d="M216.3333,365.4609 L226.3333,365.4609 C241.3333,365.4609 241.3333,307.8516 256.3333,307.8516 L266.3333,307.8516 "
            fill="none" style="stroke:#A80036;stroke-width:1.0;"/>
        <rect fill="#FEFECE" filter="url(#fhngfq1sjabg7)" height="37.6094" rx="12.5" ry="12.5"
              style="stroke:#A80036;stroke-width:1.5;" width="53" x="266.3333" y="346.6563"/>
        <text fill="#000000" font-family="sans-serif" font-size="14" lengthAdjust="spacing" textLength="33" x="276.3333"
              y="371.1895">other
        </text>
        <path
            d="M216.3333,365.4609 L226.3333,365.4609 C241.3333,365.4609 241.3333,365.4609 256.3333,365.4609 L266.3333,365.4609 "
            fill="none" style="stroke:#A80036;stroke-width:1.0;"/>
        <rect fill="#FEFECE" filter="url(#fhngfq1sjabg7)" height="37.6094" rx="12.5" ry="12.5"
              style="stroke:#A80036;stroke-width:1.5;" width="85" x="266.3333" y="404.2656"/>
        <text fill="#000000" font-family="sans-serif" font-size="14" lengthAdjust="spacing" textLength="65" x="276.3333"
              y="428.7988">pcelement
        </text>
        <path
            d="M216.3333,365.4609 L226.3333,365.4609 C241.3333,365.4609 241.3333,423.0703 256.3333,423.0703 L266.3333,423.0703 "
            fill="none" style="stroke:#A80036;stroke-width:1.0;"/>
        <rect fill="#FEFECE" filter="url(#fhngfq1sjabg7)" height="37.6094" rx="12.5" ry="12.5"
              style="stroke:#A80036;stroke-width:1.5;" width="86" x="266.3333" y="461.875"/>
        <text fill="#000000" font-family="sans-serif" font-size="14" lengthAdjust="spacing" textLength="66" x="276.3333"
              y="486.4082">pdelement
        </text>
        <path
            d="M216.3333,365.4609 L226.3333,365.4609 C241.3333,365.4609 241.3333,480.6797 256.3333,480.6797 L266.3333,480.6797 "
            fill="none" style="stroke:#A80036;stroke-width:1.0;"/>
        <rect fill="#FEFECE" filter="url(#fhngfq1sjabg7)" height="37.6094" rx="12.5" ry="12.5"
              style="stroke:#A80036;stroke-width:1.5;" width="86" x="266.3333" y="519.4844"/>
        <text fill="#000000" font-family="sans-serif" font-size="14" lengthAdjust="spacing" textLength="66" x="276.3333"
              y="544.0176">secondary
        </text>
        <path
            d="M216.3333,365.4609 L226.3333,365.4609 C241.3333,365.4609 241.3333,538.2891 256.3333,538.2891 L266.3333,538.2891 "
            fill="none" style="stroke:#A80036;stroke-width:1.0;"/>
        <path
            d="M118.3333,480.6797 L128.3333,480.6797 C143.3333,480.6797 143.3333,365.4609 158.3333,365.4609 L168.3333,365.4609 "
            fill="none" style="stroke:#A80036;stroke-width:1.0;"/>
        <rect fill="#FEFECE" filter="url(#fhngfq1sjabg7)" height="37.6094" rx="12.5" ry="12.5"
              style="stroke:#A80036;stroke-width:1.5;" width="78" x="168.3333" y="577.0938"/>
        <text fill="#000000" font-family="sans-serif" font-size="14" lengthAdjust="spacing" textLength="58" x="178.3333"
              y="601.627">diagrams
        </text>
        <path
            d="M118.3333,480.6797 L128.3333,480.6797 C143.3333,480.6797 143.3333,595.8984 158.3333,595.8984 L168.3333,595.8984 "
            fill="none" style="stroke:#A80036;stroke-width:1.0;"/>
        <rect fill="#FEFECE" filter="url(#fhngfq1sjabg7)" height="37.6094" rx="12.5" ry="12.5"
              style="stroke:#A80036;stroke-width:1.5;" width="80" x="168.3333" y="634.7031"/>
        <text fill="#000000" font-family="sans-serif" font-size="14" lengthAdjust="spacing" textLength="56" x="178.3333"
              y="659.2363">networks
        </text>
        <path
            d="M118.3333,480.6797 L128.3333,480.6797 C143.3333,480.6797 143.3333,653.5078 158.3333,653.5078 L168.3333,653.5078 "
            fill="none" style="stroke:#A80036;stroke-width:1.0;"/>
        <rect fill="#FEFECE" filter="url(#fhngfq1sjabg7)" height="37.6094" rx="12.5" ry="12.5"
              style="stroke:#A80036;stroke-width:1.5;" width="65" x="168.3333" y="692.3125"/>
        <text fill="#000000" font-family="sans-serif" font-size="14" lengthAdjust="spacing" textLength="45" x="178.3333"
              y="716.8457">reports
        </text>
        <path
            d="M118.3333,480.6797 L128.3333,480.6797 C143.3333,480.6797 143.3333,711.1172 158.3333,711.1172 L168.3333,711.1172 "
            fill="none" style="stroke:#A80036;stroke-width:1.0;"/>
        <rect fill="#FEFECE" filter="url(#fhngfq1sjabg7)" height="37.6094" rx="12.5" ry="12.5"
              style="stroke:#A80036;stroke-width:1.5;" width="62" x="168.3333" y="749.9219"/>
        <text fill="#000000" font-family="sans-serif" font-size="14" lengthAdjust="spacing" textLength="42" x="178.3333"
              y="774.4551">results
        </text>
        <path
            d="M118.3333,480.6797 L128.3333,480.6797 C143.3333,480.6797 143.3333,768.7266 158.3333,768.7266 L168.3333,768.7266 "
            fill="none" style="stroke:#A80036;stroke-width:1.0;"/>
        <rect fill="#FEFECE" filter="url(#fhngfq1sjabg7)" height="37.6094" rx="12.5" ry="12.5"
              style="stroke:#A80036;stroke-width:1.5;" width="45" x="168.3333" y="807.5313"/>
        <text fill="#000000" font-family="sans-serif" font-size="14" lengthAdjust="spacing" textLength="25" x="178.3333"
              y="832.0645">utils
        </text>
        <path
            d="M118.3333,480.6797 L128.3333,480.6797 C143.3333,480.6797 143.3333,826.3359 158.3333,826.3359 L168.3333,826.3359 "
            fill="none" style="stroke:#A80036;stroke-width:1.0;"/>
        <rect fill="#FEFECE" filter="url(#fhngfq1sjabg7)" height="37.6094" rx="12.5" ry="12.5"
              style="stroke:#A80036;stroke-width:1.5;" width="96" x="168.3333" y="865.1406"/>
        <text fill="#000000" font-family="sans-serif" font-size="14" lengthAdjust="spacing" textLength="76" x="178.3333"
              y="889.6738">visualization
        </text>
        <path
            d="M118.3333,480.6797 L128.3333,480.6797 C143.3333,480.6797 143.3333,883.9453 158.3333,883.9453 L168.3333,883.9453 "
            fill="none" style="stroke:#A80036;stroke-width:1.0;"/>
        <rect fill="none" height="17.6094" style="stroke:none;stroke-width:1.0;" width="139" x="86.1667" y="913.75"/>
        <text fill="#000000" font-family="sans-serif" font-size="14" lengthAdjust="spacing" textLength="139" x="86.1667"
              y="928.2832">Package Organization
        </text><!--MD5=[2f15253a0cc08a19f9bd6b5a140f4035]
@startmindmap
'https://plantuml.com/mindmap-diagram

caption Package Organization
title Package Organization

* <&star>py-dss-tools
** algorithms
** converter
** core
*** control
*** general
*** meters
*** other
*** pcelement
*** pdelement
*** secondary
** diagrams
** networks
**  reports
**  results
** utils
** visualization


@endmindmap

@startmindmap

caption Package Organization
title Package Organization

* <&star>py-dss-tools
** algorithms
** converter
** core
*** control
*** general
*** meters
*** other
*** pcelement
*** pdelement
*** secondary
** diagrams
** networks
**  reports
**  results
** utils
** visualization


@endmindmap

PlantUML version 1.2021.7(Sun May 23 09:40:07 BRT 2021)
(GPL source distribution)
Java Runtime: OpenJDK Runtime Environment
JVM: OpenJDK 64-Bit Server VM
Default Encoding: Cp1252
Language: pt
Country: BR
-->
    </g>
</svg>
